<svg width="92" height="22" viewBox="0 0 92 22" fill="none" xmlns="http://www.w3.org/2000/svg">
<path d="M0.165558 2.3577C0.449883 1.75742 1.05445 1.375 1.71875 1.375H20.2812C20.9473 1.375 21.5488 1.75742 21.8324 2.3577C22.1203 2.95797 22.0301 3.66824 21.5746 4.18215L13.75 13.7887V19.25C13.75 19.7699 13.4578 20.2469 12.9895 20.4789C12.5254 20.7109 11.9668 20.6637 11.55 20.35L8.8 18.2875C8.45195 18.0297 8.25 17.6215 8.25 17.1875V13.7887L0.388523 4.18215C-0.0320119 3.66824 -0.118809 2.95797 0.165601 2.3577H0.165558Z" fill="#121212"/>
<path d="M30.1816 4.20312V17H28.4854V4.20312H30.1816ZM35.543 9.95996V11.3486H29.8125V9.95996H35.543ZM36.4131 4.20312V5.5918H29.8125V4.20312H36.4131ZM39.9551 7.49023V17H38.3203V7.49023H39.9551ZM38.1973 4.96777C38.1973 4.7041 38.2764 4.48145 38.4346 4.2998C38.5986 4.11816 38.8389 4.02734 39.1553 4.02734C39.4658 4.02734 39.7031 4.11816 39.8672 4.2998C40.0371 4.48145 40.1221 4.7041 40.1221 4.96777C40.1221 5.21973 40.0371 5.43652 39.8672 5.61816C39.7031 5.79395 39.4658 5.88184 39.1553 5.88184C38.8389 5.88184 38.5986 5.79395 38.4346 5.61816C38.2764 5.43652 38.1973 5.21973 38.1973 4.96777ZM44.332 3.5V17H42.6973V3.5H44.332ZM50.9238 7.49023V8.73828H45.7822V7.49023H50.9238ZM47.5225 5.17871H49.1484V14.6445C49.1484 14.9668 49.1982 15.21 49.2979 15.374C49.3975 15.5381 49.5264 15.6465 49.6846 15.6992C49.8428 15.752 50.0127 15.7783 50.1943 15.7783C50.3291 15.7783 50.4697 15.7666 50.6162 15.7432C50.7686 15.7139 50.8828 15.6904 50.959 15.6729L50.9678 17C50.8389 17.041 50.6689 17.0791 50.458 17.1143C50.2529 17.1553 50.0039 17.1758 49.7109 17.1758C49.3125 17.1758 48.9463 17.0967 48.6123 16.9385C48.2783 16.7803 48.0117 16.5166 47.8125 16.1475C47.6191 15.7725 47.5225 15.2686 47.5225 14.6357V5.17871ZM56.7773 17.1758C56.1152 17.1758 55.5146 17.0645 54.9756 16.8418C54.4424 16.6133 53.9824 16.2939 53.5957 15.8838C53.2148 15.4736 52.9219 14.9873 52.7168 14.4248C52.5117 13.8623 52.4092 13.2471 52.4092 12.5791V12.21C52.4092 11.4365 52.5234 10.748 52.752 10.1445C52.9805 9.53516 53.291 9.01953 53.6836 8.59766C54.0762 8.17578 54.5215 7.85645 55.0195 7.63965C55.5176 7.42285 56.0332 7.31445 56.5664 7.31445C57.2461 7.31445 57.832 7.43164 58.3242 7.66602C58.8223 7.90039 59.2295 8.22852 59.5459 8.65039C59.8623 9.06641 60.0967 9.55859 60.249 10.127C60.4014 10.6895 60.4775 11.3047 60.4775 11.9727V12.7021H53.376V11.375H58.8516V11.252C58.8281 10.8301 58.7402 10.4199 58.5879 10.0215C58.4414 9.62305 58.207 9.29492 57.8848 9.03711C57.5625 8.7793 57.123 8.65039 56.5664 8.65039C56.1973 8.65039 55.8574 8.72949 55.5469 8.8877C55.2363 9.04004 54.9697 9.26855 54.7471 9.57324C54.5244 9.87793 54.3516 10.25 54.2285 10.6895C54.1055 11.1289 54.0439 11.6357 54.0439 12.21V12.5791C54.0439 13.0303 54.1055 13.4551 54.2285 13.8535C54.3574 14.2461 54.542 14.5918 54.7822 14.8906C55.0283 15.1895 55.3242 15.4238 55.6699 15.5938C56.0215 15.7637 56.4199 15.8486 56.8652 15.8486C57.4395 15.8486 57.9258 15.7314 58.3242 15.4971C58.7227 15.2627 59.0713 14.9492 59.3701 14.5566L60.3545 15.3389C60.1494 15.6494 59.8887 15.9453 59.5723 16.2266C59.2559 16.5078 58.8662 16.7363 58.4033 16.9121C57.9463 17.0879 57.4043 17.1758 56.7773 17.1758ZM64.002 8.98438V17H62.376V7.49023H63.958L64.002 8.98438ZM66.9727 7.4375L66.9639 8.94922C66.8291 8.91992 66.7002 8.90234 66.5771 8.89648C66.46 8.88477 66.3252 8.87891 66.1729 8.87891C65.7979 8.87891 65.4668 8.9375 65.1797 9.05469C64.8926 9.17188 64.6494 9.33594 64.4502 9.54688C64.251 9.75781 64.0928 10.0098 63.9756 10.3027C63.8643 10.5898 63.791 10.9062 63.7559 11.252L63.2988 11.5156C63.2988 10.9414 63.3545 10.4023 63.4658 9.89844C63.583 9.39453 63.7617 8.94922 64.002 8.5625C64.2422 8.16992 64.5469 7.86523 64.916 7.64844C65.291 7.42578 65.7363 7.31445 66.252 7.31445C66.3691 7.31445 66.5039 7.3291 66.6562 7.3584C66.8086 7.38184 66.9141 7.4082 66.9727 7.4375ZM70.2422 7.49023V17H68.6074V7.49023H70.2422ZM68.4844 4.96777C68.4844 4.7041 68.5635 4.48145 68.7217 4.2998C68.8857 4.11816 69.126 4.02734 69.4424 4.02734C69.7529 4.02734 69.9902 4.11816 70.1543 4.2998C70.3242 4.48145 70.4092 4.7041 70.4092 4.96777C70.4092 5.21973 70.3242 5.43652 70.1543 5.61816C69.9902 5.79395 69.7529 5.88184 69.4424 5.88184C69.126 5.88184 68.8857 5.79395 68.7217 5.61816C68.5635 5.43652 68.4844 5.21973 68.4844 4.96777ZM74.4785 9.52051V17H72.8525V7.49023H74.3906L74.4785 9.52051ZM74.0918 11.8848L73.415 11.8584C73.4209 11.208 73.5176 10.6074 73.7051 10.0566C73.8926 9.5 74.1562 9.0166 74.4961 8.60645C74.8359 8.19629 75.2402 7.87988 75.709 7.65723C76.1836 7.42871 76.708 7.31445 77.2822 7.31445C77.751 7.31445 78.1729 7.37891 78.5479 7.50781C78.9229 7.63086 79.2422 7.83008 79.5059 8.10547C79.7754 8.38086 79.9805 8.73828 80.1211 9.17773C80.2617 9.61133 80.332 10.1416 80.332 10.7686V17H78.6973V10.751C78.6973 10.2529 78.624 9.85449 78.4775 9.55566C78.3311 9.25098 78.1172 9.03125 77.8359 8.89648C77.5547 8.75586 77.209 8.68555 76.7988 8.68555C76.3945 8.68555 76.0254 8.77051 75.6914 8.94043C75.3633 9.11035 75.0791 9.34473 74.8389 9.64355C74.6045 9.94238 74.4199 10.2852 74.2852 10.6719C74.1562 11.0527 74.0918 11.457 74.0918 11.8848ZM88.9629 7.49023H90.4395V16.7979C90.4395 17.6357 90.2695 18.3506 89.9297 18.9424C89.5898 19.5342 89.1152 19.9824 88.5059 20.2871C87.9023 20.5977 87.2051 20.7529 86.4141 20.7529C86.0859 20.7529 85.6992 20.7002 85.2539 20.5947C84.8145 20.4951 84.3809 20.3223 83.9531 20.0762C83.5312 19.8359 83.1768 19.5107 82.8896 19.1006L83.7422 18.1338C84.1406 18.6143 84.5566 18.9482 84.9902 19.1357C85.4297 19.3232 85.8633 19.417 86.291 19.417C86.8066 19.417 87.252 19.3203 87.627 19.127C88.002 18.9336 88.292 18.6465 88.4971 18.2656C88.708 17.8906 88.8135 17.4277 88.8135 16.877V9.58203L88.9629 7.49023ZM82.415 12.3506V12.166C82.415 11.4395 82.5 10.7803 82.6699 10.1885C82.8457 9.59082 83.0947 9.07812 83.417 8.65039C83.7451 8.22266 84.1406 7.89453 84.6035 7.66602C85.0664 7.43164 85.5879 7.31445 86.168 7.31445C86.7656 7.31445 87.2871 7.41992 87.7324 7.63086C88.1836 7.83594 88.5645 8.1377 88.875 8.53613C89.1914 8.92871 89.4404 9.40332 89.6221 9.95996C89.8037 10.5166 89.9297 11.1465 90 11.8496V12.6582C89.9355 13.3555 89.8096 13.9824 89.6221 14.5391C89.4404 15.0957 89.1914 15.5703 88.875 15.9629C88.5645 16.3555 88.1836 16.6572 87.7324 16.8682C87.2812 17.0732 86.7539 17.1758 86.1504 17.1758C85.582 17.1758 85.0664 17.0557 84.6035 16.8154C84.1465 16.5752 83.7539 16.2383 83.4258 15.8047C83.0977 15.3711 82.8457 14.8613 82.6699 14.2754C82.5 13.6836 82.415 13.042 82.415 12.3506ZM84.041 12.166V12.3506C84.041 12.8252 84.0879 13.2705 84.1816 13.6865C84.2812 14.1025 84.4307 14.4688 84.6299 14.7852C84.835 15.1016 85.0957 15.3506 85.4121 15.5322C85.7285 15.708 86.1064 15.7959 86.5459 15.7959C87.085 15.7959 87.5303 15.6816 87.8818 15.4531C88.2334 15.2246 88.5117 14.9229 88.7168 14.5479C88.9277 14.1729 89.0918 13.7656 89.209 13.3262V11.208C89.1445 10.8857 89.0449 10.5752 88.9102 10.2764C88.7812 9.97168 88.6113 9.70215 88.4004 9.46777C88.1953 9.22754 87.9404 9.03711 87.6357 8.89648C87.3311 8.75586 86.9736 8.68555 86.5635 8.68555C86.1182 8.68555 85.7344 8.7793 85.4121 8.9668C85.0957 9.14844 84.835 9.40039 84.6299 9.72266C84.4307 10.0391 84.2812 10.4082 84.1816 10.8301C84.0879 11.2461 84.041 11.6914 84.041 12.166Z" fill="black"/>
</svg>
